<svg width="275" height="243" viewBox="0 0 275 243" fill="none" xmlns="http://www.w3.org/2000/svg">
<path fill-rule="evenodd" clip-rule="evenodd" d="M2.76991 187.61C3.83991 187.23 4.96991 186.72 5.83991 185.99C6.86991 185.12 7.28991 184 7.56991 182.81C7.92991 181.29 8.07991 179.67 8.51991 178.15C8.67991 177.58 8.99991 177.37 9.12991 177.28C9.46991 177.04 9.80991 176.98 10.1299 177C10.5099 177.03 11.0399 177.17 11.3799 177.81C11.4299 177.9 11.4899 178.04 11.5399 178.23C11.5699 178.37 11.5899 178.81 11.6199 178.99C11.6999 179.44 11.7699 179.88 11.8399 180.33C12.0599 181.82 12.1799 183.09 12.8699 184.46C13.7999 186.32 14.7299 187.46 15.9999 187.96C17.2199 188.45 18.6899 188.36 20.5599 187.97C20.7399 187.93 20.9099 187.89 21.0899 187.86C21.9099 187.72 22.6999 188.26 22.8599 189.08C23.0199 189.9 22.4999 190.7 21.6799 190.88C21.5099 190.92 21.3399 190.95 21.1799 190.98C18.6499 191.61 15.7299 193.84 14.0299 195.79C13.5099 196.39 12.7399 198.08 11.9599 199.15C11.3799 199.94 10.7299 200.47 10.1899 200.65C9.81991 200.77 9.51991 200.76 9.25991 200.69C8.88991 200.6 8.57991 200.4 8.34991 200.08C8.21991 199.91 8.09991 199.67 8.04991 199.37C8.01991 199.23 8.01991 198.86 8.01991 198.7C7.85991 198.15 7.66991 197.62 7.51991 197.06C7.17991 195.74 6.51991 194.91 5.72991 193.8C4.98991 192.77 4.19991 192.12 3.02991 191.6C2.87991 191.56 1.65991 191.26 1.22991 191.09C0.599914 190.84 0.299913 190.42 0.189913 190.19C-8.70377e-05 189.8 -0.0100928 189.47 0.0199072 189.19C0.0699072 188.77 0.259907 188.42 0.589907 188.14C0.789907 187.96 1.09991 187.79 1.50991 187.71C1.82991 187.64 2.65991 187.61 2.77991 187.6L2.76991 187.61ZM9.93991 185.46C9.99991 185.59 10.0599 185.71 10.1199 185.84C11.4799 188.56 13.0099 190.08 14.8599 190.82L14.9199 190.84C13.6799 191.76 12.5599 192.79 11.6999 193.78C11.3499 194.19 10.8799 195.03 10.3699 195.9C9.90991 194.41 9.15991 193.35 8.21991 192.03C7.49991 191.02 6.73991 190.26 5.80991 189.65C6.52991 189.28 7.21991 188.85 7.81991 188.34C8.81991 187.5 9.47991 186.52 9.92991 185.46H9.93991Z" fill="#FF6F00"/>
<path d="M30 12C33.3137 12 36 9.31371 36 6C36 2.68629 33.3137 0 30 0C26.6863 0 24 2.68629 24 6C24 9.31371 26.6863 12 30 12Z" fill="#FF6F00"/>
<path d="M269 137C272.314 137 275 134.314 275 131C275 127.686 272.314 125 269 125C265.686 125 263 127.686 263 131C263 134.314 265.686 137 269 137Z" fill="#FF6F00"/>
<path d="M129 228C191.96 228 243 176.96 243 114C243 51.04 191.96 0 129 0C66.04 0 15 51.04 15 114C15 176.96 66.04 228 129 228Z" fill="url(#paint0_linear_30899_5028)"/>
<path fill-rule="evenodd" clip-rule="evenodd" d="M128.5 45C140.93 45 151 34.93 151 22.5C151 10.07 140.93 0 128.5 0C116.07 0 106 10.07 106 22.5C106 34.93 116.07 45 128.5 45ZM128 35C134.63 35 140 29.63 140 23C140 16.37 134.63 11 128 11C121.37 11 116 16.37 116 23C116 29.63 121.37 35 128 35Z" fill="#212B36"/>
<path d="M128.05 203.1C152.38 203.1 172.1 183.38 172.1 159.05C172.1 134.72 152.38 115 128.05 115C103.72 115 84 134.72 84 159.05C84 183.38 103.72 203.1 128.05 203.1Z" fill="url(#paint1_linear_30899_5028)"/>
<path d="M197.77 126.3V92.51C197.77 74.08 190.45 56.4 177.41 43.36C164.37 30.33 146.7 23 128.26 23C109.82 23 92.15 30.32 79.11 43.36C66.07 56.39 58.75 74.07 58.75 92.51V126.3C58.75 134.06 56.55 141.67 52.41 148.24C48.27 154.81 42.36 160.07 35.35 163.42C33.74 164.19 32.38 165.4 31.43 166.9C30.48 168.41 29.98 170.16 29.98 171.94V172.12C29.98 172.76 30.1 173.4 30.35 174C30.6 174.6 30.96 175.14 31.41 175.59C31.86 176.04 32.41 176.41 33 176.65C33.59 176.9 34.23 177.02 34.88 177.02H221.6C222.24 177.02 222.88 176.89 223.48 176.65C224.08 176.41 224.62 176.04 225.07 175.59C225.52 175.14 225.89 174.59 226.13 174C226.38 173.4 226.5 172.77 226.5 172.12V171.94C226.5 170.16 226 168.42 225.05 166.92C224.1 165.42 222.75 164.21 221.14 163.45C214.13 160.1 208.21 154.83 204.07 148.26C199.93 141.69 197.74 134.07 197.74 126.31L197.77 126.3Z" fill="url(#paint2_linear_30899_5028)"/>
<path fill-rule="evenodd" clip-rule="evenodd" d="M227 174C227 175.657 225.657 177 224 177H33C31.3432 177 30 175.657 30 174C30 172.343 31.3431 171 33 171H224C225.657 171 227 172.343 227 174Z" fill="#212B36"/>
<path fill-rule="evenodd" clip-rule="evenodd" d="M74.1098 192.3C69.3198 196.63 64.5398 200.88 59.8798 205.35C58.8698 206.31 58.8398 207.89 59.7898 208.88C60.7498 209.89 62.3298 209.92 63.3298 208.96C67.9698 204.52 72.7098 200.31 77.4598 196.01C78.4798 195.08 78.5598 193.49 77.6498 192.48C76.7198 191.46 75.1398 191.37 74.1098 192.3Z" fill="#212B36"/>
<path fill-rule="evenodd" clip-rule="evenodd" d="M182.32 192.3C187.08 196.63 191.83 200.88 196.47 205.35C197.47 206.31 197.5 207.89 196.54 208.88C195.58 209.88 193.99 209.91 193 208.96C188.39 204.52 183.68 200.31 178.95 196.01C177.93 195.08 177.86 193.5 178.78 192.48C179.71 191.46 181.3 191.37 182.32 192.31V192.3Z" fill="#212B36"/>
<path fill-rule="evenodd" clip-rule="evenodd" d="M125.15 220.3C125.07 226.75 124.94 233.12 125.06 239.56C125.08 240.95 126.21 242.04 127.59 242.02C128.97 242 130.08 240.85 130.05 239.48C129.94 233.07 130.07 226.75 130.15 220.35C130.16 218.97 129.06 217.84 127.69 217.82C126.31 217.82 125.17 218.92 125.16 220.3H125.15Z" fill="#212B36"/>
<path d="M188 82C203.46 82 216 69.46 216 54C216 38.54 203.46 26 188 26C172.54 26 160 38.54 160 54C160 69.46 172.54 82 188 82Z" fill="white"/>
<path d="M181.08 53C181.08 50.248 181.608 48.08 182.664 46.496C183.736 44.912 185.456 44.12 187.824 44.12C190.192 44.12 191.904 44.912 192.96 46.496C194.032 48.08 194.568 50.248 194.568 53C194.568 55.784 194.032 57.968 192.96 59.552C191.904 61.136 190.192 61.928 187.824 61.928C185.456 61.928 183.736 61.136 182.664 59.552C181.608 57.968 181.08 55.784 181.08 53ZM190.536 53C190.536 51.384 190.36 50.144 190.008 49.28C189.656 48.4 188.928 47.96 187.824 47.96C186.72 47.96 185.992 48.4 185.64 49.28C185.288 50.144 185.112 51.384 185.112 53C185.112 54.088 185.176 54.992 185.304 55.712C185.432 56.416 185.688 56.992 186.072 57.44C186.472 57.872 187.056 58.088 187.824 58.088C188.592 58.088 189.168 57.872 189.552 57.44C189.952 56.992 190.216 56.416 190.344 55.712C190.472 54.992 190.536 54.088 190.536 53Z" fill="#FF4842"/>
<defs>
<linearGradient id="paint0_linear_30899_5028" x1="128.12" y1="-37.12" x2="130.45" y2="363.23" gradientUnits="userSpaceOnUse">
<stop stop-color="#FFFFD5"/>
<stop offset="1" stop-color="#F5F5AA"/>
</linearGradient>
<linearGradient id="paint1_linear_30899_5028" x1="119" y1="165" x2="168.5" y2="209.5" gradientUnits="userSpaceOnUse">
<stop stop-color="#FF6F00"/>
<stop offset="1" stop-color="#FFC89E"/>
</linearGradient>
<linearGradient id="paint2_linear_30899_5028" x1="177.5" y1="155.5" x2="36.0005" y2="-16" gradientUnits="userSpaceOnUse">
<stop stop-color="#FF6F00"/>
<stop offset="1" stop-color="#FFC08F"/>
</linearGradient>
</defs>
</svg>
