<svg width="32" height="32" viewBox="0 0 32 32" fill="none" xmlns="http://www.w3.org/2000/svg">
<g id="Frame">
<g id="Group">
<path id="Vector" d="M25.5 4.5V13.16C22.4953 14.4257 19.26 15.0523 16 15C12.74 15.0523 9.50474 14.4257 6.5 13.16V1.5C6.5 1.36739 6.55268 1.24021 6.64645 1.14645C6.74021 1.05268 6.86739 1 7 1H22L25.5 4.5Z" fill="#CCE2FF"/>
<path id="Vector_2" d="M22 1V4C22 4.13261 22.0527 4.25979 22.1464 4.35355C22.2402 4.44732 22.3674 4.5 22.5 4.5H25.5L22 1Z" fill="#B8CBE6"/>
<path id="Vector_3" d="M16 13C18.4853 13 20.5 10.9853 20.5 8.5C20.5 6.01472 18.4853 4 16 4C13.5147 4 11.5 6.01472 11.5 8.5C11.5 10.9853 13.5147 13 16 13Z" fill="#44A649"/>
<path id="Vector_4" d="M25.8201 24.1002C25.8477 24.1635 25.8882 24.2203 25.939 24.2672C25.9897 24.3141 26.0497 24.3499 26.115 24.3724C26.1803 24.395 26.2495 24.4038 26.3184 24.3982C26.3873 24.3927 26.4542 24.3729 26.5151 24.3402L29.5151 22.8702L25.7051 15.1602L22.7051 16.6302C22.6447 16.6611 22.5913 16.7039 22.5481 16.7561C22.5049 16.8083 22.4727 16.8687 22.4535 16.9337C22.4343 16.9987 22.4286 17.0669 22.4366 17.1342C22.4446 17.2015 22.4662 17.2665 22.5001 17.3252L22.8051 17.9502C22.0901 18.2002 20.6551 18.2752 17.9251 17.1702C13.2751 15.2802 10.8101 21.1702 10.8101 22.0602C10.8101 22.9502 13.4151 23.1752 14.9501 20.4552L23.3751 25.7452C23.8505 24.7966 24.6017 24.014 25.5301 23.5002L25.8201 24.1002Z" fill="#2970CC"/>
<path id="Vector_5" d="M23.585 25.8802L14.935 20.4552L12 19.3452C11.1975 19.163 10.4437 18.81 9.79 18.3102L9.88 18.1602C9.94755 18.0405 9.96549 17.8991 9.92997 17.7664C9.89444 17.6336 9.80829 17.5201 9.69 17.4502L6.8 15.7852L2.5 23.2252L5.39 24.8902C5.44817 24.9262 5.51312 24.95 5.58085 24.96C5.64857 24.9699 5.71761 24.9659 5.78371 24.9481C5.8498 24.9302 5.91153 24.8991 5.96508 24.8564C6.01863 24.8138 6.06285 24.7606 6.095 24.7002L6.23 24.4652L8 25.7802L14.81 29.8102L16.5 30.8352C16.6509 30.9371 16.8267 30.996 17.0086 31.0054C17.1904 31.0147 17.3714 30.9743 17.5319 30.8883C17.6925 30.8024 17.8265 30.6743 17.9196 30.5177C18.0126 30.3612 18.0612 30.1823 18.06 30.0002C18.0587 29.8319 18.0149 29.6667 17.9327 29.5199C17.8506 29.3731 17.7327 29.2493 17.59 29.1602L18.38 29.6352C18.5814 29.7675 18.8238 29.8227 19.0627 29.7906C19.3016 29.7584 19.5208 29.6411 19.68 29.4602C19.7734 29.3501 19.8419 29.2212 19.8808 29.0822C19.9196 28.9432 19.928 28.7974 19.9051 28.6549C19.8823 28.5124 19.829 28.3765 19.7487 28.2566C19.6684 28.1367 19.5631 28.0355 19.44 27.9602L20.24 28.4602C20.4414 28.5925 20.6838 28.6477 20.9227 28.6156C21.1616 28.5834 21.3808 28.4661 21.54 28.2852C21.6336 28.1755 21.7024 28.0468 21.7417 27.908C21.7809 27.7692 21.7897 27.6236 21.7674 27.4811C21.7451 27.3386 21.6922 27.2027 21.6124 27.0825C21.5326 26.9624 21.4277 26.861 21.305 26.7852L22.535 27.5252C22.6848 27.6201 22.8572 27.6734 23.0344 27.6798C23.2117 27.6861 23.3874 27.6452 23.5436 27.5613C23.6998 27.4773 23.8309 27.3533 23.9234 27.202C24.0159 27.0507 24.0665 26.8775 24.07 26.7002C24.0637 26.5339 24.0161 26.3719 23.9314 26.2287C23.8467 26.0855 23.7277 25.9657 23.585 25.8802Z" fill="#E65C62"/>
<path id="Vector_6" d="M9.78498 18.3096L9.78998 18.3146V18.3096H9.78498ZM23.585 25.8796L14.935 20.4546L12 19.3446C11.198 19.1638 10.4442 18.8125 9.78998 18.3146L6.22998 24.4696L7.99998 25.7796L14.81 29.8096L16.55 30.8596C16.7699 30.95 17.0149 30.959 17.241 30.8851C17.467 30.8112 17.6593 30.6591 17.7834 30.4562C17.9074 30.2533 17.9551 30.0128 17.9178 29.7779C17.8805 29.543 17.7608 29.3291 17.58 29.1746L18.415 29.6746C18.6327 29.7501 18.8698 29.748 19.0861 29.6689C19.3025 29.5897 19.4849 29.4383 19.6025 29.2401C19.7201 29.042 19.7657 28.8093 19.7315 28.5814C19.6973 28.3536 19.5855 28.1445 19.415 27.9896L20.26 28.4896C20.3698 28.5893 20.5004 28.6634 20.6423 28.7064C20.7843 28.7494 20.934 28.7603 21.0807 28.7383C21.2274 28.7163 21.3674 28.662 21.4904 28.5792C21.6135 28.4964 21.7166 28.3873 21.7923 28.2598C21.868 28.1322 21.9144 27.9894 21.9281 27.8417C21.9418 27.694 21.9225 27.5451 21.8715 27.4058C21.8206 27.2665 21.7392 27.1403 21.6335 27.0363C21.5277 26.9323 21.4001 26.8532 21.26 26.8046L22.525 27.5646C22.7499 27.6964 23.0175 27.7352 23.2706 27.6726C23.5237 27.61 23.7424 27.451 23.88 27.2296C23.9716 27.0786 24.0216 26.9061 24.025 26.7296C24.0286 26.5624 23.9901 26.397 23.9133 26.2485C23.8364 26.1 23.7235 25.9732 23.585 25.8796Z" fill="#FFD299"/>
<g id="Group_2">
<path id="Vector_7" d="M18.1702 27.2199L20.3052 28.4999C20.4519 28.5846 20.6183 28.6292 20.7877 28.6292C20.9571 28.6292 21.1235 28.5846 21.2702 28.4999L18.4252 26.7999L18.1702 27.2199ZM19.8802 25.3799L19.6252 25.8049L22.5702 27.5699C22.7222 27.6577 22.8946 27.7039 23.0702 27.7039C23.2457 27.7039 23.4182 27.6577 23.5702 27.5699L19.8802 25.3799ZM16.3052 28.3999L18.4502 29.6899C18.5973 29.7704 18.7624 29.8126 18.9302 29.8126C19.0979 29.8126 19.263 29.7704 19.4102 29.6899L16.5602 27.9999L16.3052 28.3999Z" fill="#E6B373"/>
</g>
<path id="Vector_8" d="M9.73455 25.213L9.54915 25.0856C9.15094 24.8118 8.60618 24.9127 8.33239 25.3109L7.64687 26.3079C7.37308 26.7062 7.47395 27.2509 7.87216 27.5247L8.05757 27.6522C8.45578 27.926 9.00054 27.8251 9.27432 27.4269L9.95985 26.4298C10.2336 26.0316 10.1328 25.4868 9.73455 25.213Z" fill="#FFC680"/>
<path id="Vector_9" d="M11.6389 25.9308L11.4534 25.8033C11.0552 25.5296 10.5105 25.6304 10.2367 26.0286L9.27356 27.4295C8.99977 27.8277 9.10064 28.3725 9.49885 28.6462L9.68426 28.7737C10.0825 29.0475 10.6272 28.9466 10.901 28.5484L11.8641 27.1476C12.1379 26.7494 12.0371 26.2046 11.6389 25.9308Z" fill="#FFC680"/>
<path id="Vector_10" d="M13.2658 27.047L13.0804 26.9196C12.6822 26.6458 12.1374 26.7466 11.8636 27.1449L11.1781 28.1419C10.9043 28.5401 11.0052 29.0849 11.4034 29.3587L11.5888 29.4862C11.987 29.7599 12.5318 29.6591 12.8056 29.2609L13.4911 28.2638C13.7649 27.8656 13.664 27.3208 13.2658 27.047Z" fill="#FFC680"/>
<path id="Vector_11" d="M26.3354 22.0844L27.2189 21.6494L27.6754 22.5784L26.7919 23.0124L26.3354 22.0844Z" fill="#1258B3"/>
<path id="Vector_12" d="M22.7899 17.9504C22.0749 18.2004 20.6399 18.2754 17.9099 17.1704C13.2599 15.2804 10.7949 21.1704 10.7949 22.0604C10.7949 22.9504 13.3999 23.1754 14.9349 20.4554L23.3749 25.7454C23.8504 24.7969 24.6016 24.0143 25.5299 23.5004L22.7899 17.9504Z" fill="#FFC680"/>
<path id="Vector_13" d="M23.6799 25.2603L23.4399 25.1103L20.0949 23.0003C20.3188 22.8519 20.5296 22.6846 20.7249 22.5003C20.955 22.2778 21.1566 22.0276 21.3249 21.7553L20.8949 21.5003C20.7282 21.7676 20.5245 22.01 20.2899 22.2203C20.0878 22.4072 19.8685 22.5746 19.6349 22.7203L14.9999 19.8203C13.5549 22.3803 11.1699 22.3803 10.8849 21.5903C10.8352 21.7425 10.8049 21.9005 10.7949 22.0603C10.7949 23.0003 13.3999 23.1753 14.9349 20.4553L19.0549 23.0353L19.5549 23.3503L23.3799 25.7503C23.4999 25.5703 23.5749 25.4103 23.6799 25.2603Z" fill="#E6A85C"/>
<path id="Vector_14" d="M14.6096 28.5734L14.4241 28.4459C14.0259 28.1721 13.4812 28.273 13.2074 28.6712L12.8023 29.2604C12.5285 29.6586 12.6294 30.2034 13.0276 30.4772L13.213 30.6046C13.6112 30.8784 14.156 30.7775 14.4298 30.3793L14.8348 29.7902C15.1086 29.3919 15.0078 28.8472 14.6096 28.5734Z" fill="#FFC680"/>
<path id="Vector_15" d="M15.0298 10.7697C14.9313 10.7699 14.8337 10.7505 14.7427 10.7128C14.6518 10.675 14.5692 10.6196 14.4998 10.5497L13.2598 9.30969L14.3198 8.24969L15.0298 8.95469L17.6798 6.30469L18.7398 7.36469L15.5598 10.5497C15.4183 10.689 15.2283 10.7679 15.0298 10.7697Z" fill="#F2F2F2"/>
</g>
</g>
</svg>
