<svg width="32" height="32" viewBox="0 0 32 32" fill="none" xmlns="http://www.w3.org/2000/svg">
<g id="Frame">
<g id="Group">
<g id="Group_2">
<path id="Vector" fill-rule="evenodd" clip-rule="evenodd" d="M27.7576 17.3088L29.4426 12.252H18.4951L16.8101 17.3088V26.6088H27.7576V17.3088Z" fill="#F0C419"/>
<path id="Vector_2" fill-rule="evenodd" clip-rule="evenodd" d="M27.7573 17.3088L29.4423 12.252L30.9998 17.3088V26.6088H27.7573V17.3088Z" fill="#F29C1F"/>
<path id="Vector_3" fill-rule="evenodd" clip-rule="evenodd" d="M29.4425 12.2517H18.495C17.9388 12.2517 17.4844 11.7967 17.4844 11.2411C17.4844 10.6848 17.9394 10.2305 18.495 10.2305H29.4425C29.9987 10.2305 30.4531 10.6855 30.4531 11.2411C30.4537 11.7967 29.9987 12.2517 29.4425 12.2517Z" fill="#F29C1F"/>
<path id="Vector_4" fill-rule="evenodd" clip-rule="evenodd" d="M23.0376 20.6797C23.2045 19.1572 23.4451 18.0741 24.8038 17.0028C24.8326 16.9803 24.8695 16.9759 24.9026 16.9922C24.9357 17.0084 24.9551 17.0397 24.9551 17.0766V21.4472H23.8326L23.8432 20.8103L23.0376 20.6797Z" fill="#CFD1D3"/>
<path id="Vector_5" fill-rule="evenodd" clip-rule="evenodd" d="M24.9555 21.4463H23.833L23.5887 24.33C23.5718 24.5325 23.633 24.7132 23.7705 24.8625C23.908 25.0119 24.0824 25.0888 24.2855 25.0888H24.3755C24.573 25.0888 24.7437 25.0163 24.8805 24.8738C25.0174 24.7313 25.083 24.5582 25.0749 24.3607L24.9555 21.4463Z" fill="#FF6167"/>
<path id="Vector_6" fill-rule="evenodd" clip-rule="evenodd" d="M19.8805 18.3037H21.9905V18.9793C21.9905 19.205 21.9074 19.3987 21.7436 19.5543L21.4661 19.8181H20.4043L20.1268 19.5543C19.963 19.3987 19.8799 19.205 19.8799 18.9793V18.3037H19.8805Z" fill="#CFD1D3"/>
<path id="Vector_7" fill-rule="evenodd" clip-rule="evenodd" d="M20.4052 19.8171H21.4671L21.6502 24.3603C21.6583 24.5578 21.5927 24.7309 21.4558 24.8734C21.319 25.0159 21.149 25.0884 20.9515 25.0884H20.719C20.5158 25.0884 20.3408 25.0115 20.204 24.8621C20.0665 24.7128 20.0046 24.5321 20.0221 24.3296L20.4052 19.8171ZM3.70709 26.0228C3.70022 26.0265 3.69334 26.0296 3.68584 26.0334L2.36647 26.7078L1.15647 20.079C1.02022 19.3321 1.34772 18.6028 1.99647 18.2078L5.39272 16.139L7.16959 18.6121C7.19334 18.6446 7.23147 18.664 7.27147 18.664C7.29084 18.664 7.30959 18.659 7.32709 18.6503L9.76522 17.4303L11.3252 20.1453C11.3477 20.184 11.3883 20.2078 11.4333 20.2078C11.439 20.2078 11.4446 20.2078 11.4502 20.2065C11.5008 20.1996 11.5415 20.1628 11.5546 20.1134L12.2652 17.334L13.9471 18.6371C13.969 18.654 13.9965 18.6634 14.024 18.6634C14.039 18.6634 14.054 18.6603 14.0677 18.6553C14.1083 18.6403 14.1377 18.6053 14.1465 18.5634L14.7165 15.7334L16.7171 17.1215L16.6883 17.2796C16.6865 17.2884 16.6852 17.299 16.6852 17.3078V24.794L9.42522 26.3996L7.82522 24.0553L6.35772 20.5921C6.34473 20.5617 6.32021 20.5376 6.28952 20.5252C6.25883 20.5128 6.22447 20.513 6.19397 20.5259C6.16355 20.5389 6.13952 20.5635 6.12711 20.5941C6.1147 20.6248 6.11492 20.6591 6.12772 20.6896L7.55397 24.0578L3.70709 26.0228Z" fill="#FF6167"/>
<path id="Vector_8" fill-rule="evenodd" clip-rule="evenodd" d="M5.60693 16.0087L7.42006 14.9043L9.56506 17.2512L7.31068 18.3799L5.60693 16.0087ZM12.8294 15.1243L14.4694 15.6974L13.9413 18.3174L12.3319 17.0712L12.8294 15.1243Z" fill="#FEE45A"/>
<path id="Vector_9" fill-rule="evenodd" clip-rule="evenodd" d="M11.3882 19.7544L10.035 17.3988L10.0338 17.3969C10.0307 17.3906 10.025 17.3844 10.0207 17.3794L7.58691 14.7163L8.21566 13.0075L8.45691 13.11C8.90254 13.2988 9.37754 13.3881 9.86129 13.3881C9.89629 13.3881 9.93191 13.3875 9.96691 13.3869C10.195 13.3806 10.4188 13.3656 10.6432 13.3244C10.9425 13.2694 11.2344 13.1769 11.5107 13.0475L11.7457 12.9375L12.6107 14.9719L11.3882 19.7544Z" fill="#F9CDAF"/>
<path id="Vector_10" fill-rule="evenodd" clip-rule="evenodd" d="M10.5986 13.0771C10.3868 13.1159 10.1749 13.1303 9.96051 13.1359C8.83176 13.1659 7.83176 12.6721 7.16926 11.7578C6.46676 10.789 5.97426 9.54902 5.59863 8.41965L5.48926 8.0909H9.78176C10.5374 8.0909 11.2043 7.80027 11.7199 7.24777L13.1618 5.70215L13.2605 6.17465C13.5393 7.51215 13.553 8.83402 13.3255 10.1809L13.3243 10.1871L13.323 10.1934C13.2649 10.4546 13.1905 10.7134 13.0968 10.9646C12.6793 12.0809 11.773 12.8621 10.5986 13.0771Z" fill="#F9CDAF"/>
<g id="Group_3">
<path id="Vector_11" fill-rule="evenodd" clip-rule="evenodd" d="M8.03758 7.84126H5.40758L5.35758 7.65626C5.07445 6.60814 4.97883 5.43126 5.4032 4.40626C5.7982 3.45251 6.56383 2.82751 7.53133 2.49501C8.47133 2.17189 9.55945 2.14876 10.517 2.40376C11.3151 2.61626 12.2032 3.08439 12.5382 3.88564C12.6545 4.16439 12.762 4.44626 12.8601 4.73189L12.9738 5.06314H11.4326C10.5713 5.06314 9.81883 5.44189 9.30508 6.13314L8.03758 7.84126Z" fill="#FF6167"/>
<path id="Vector_12" fill-rule="evenodd" clip-rule="evenodd" d="M9.50613 6.28285C9.97488 5.6516 10.6468 5.3141 11.433 5.3141H13.1818L11.5374 7.07785C11.0674 7.58223 10.4718 7.8416 9.78176 7.8416H8.34863L9.50613 6.28285ZM13.3105 5.31348H14.1386C14.888 5.31348 15.5386 5.62535 16.0086 6.2091L16.4161 6.71535C16.4799 6.79473 16.498 6.8891 16.4693 6.98598C16.4393 7.08598 16.3699 7.15535 16.2693 7.18473L13.7324 7.9291L13.7118 7.61785C13.6674 6.9441 13.5574 6.27848 13.3905 5.62473L13.3105 5.31348Z" fill="#FF6167"/>
</g>
<path id="Vector_13" fill-rule="evenodd" clip-rule="evenodd" d="M5.77943 10.4296C5.57568 10.4684 5.36506 10.4471 5.17443 10.364C4.93756 10.2602 4.75318 10.0709 4.66443 9.82773C4.57568 9.58461 4.59506 9.32086 4.70881 9.08898C4.79506 8.91336 4.93006 8.76836 5.09693 8.66648L5.36131 8.50586L5.46318 8.79836C5.61443 9.23273 5.77881 9.66336 5.96256 10.0846L6.08756 10.3715L5.77943 10.4296ZM19.3976 24.4521C19.5869 24.4102 19.7682 24.4509 19.9219 24.5702C20.0757 24.6896 20.1594 24.8527 20.1669 25.0477L20.1682 25.0915C20.1751 25.3646 20.0213 25.6427 19.7419 25.709L16.6419 26.4452C16.5794 26.4602 16.5382 26.5196 16.5469 26.5834C16.5557 26.6471 16.6113 26.6934 16.6757 26.6915L22.3838 26.4934C22.5626 26.4871 22.7207 26.5465 22.8494 26.6715C22.9794 26.7971 23.0438 26.9515 23.0419 27.1309V27.1421C23.0388 27.4696 22.7932 27.7427 22.4644 27.7665L17.6351 28.1127C16.3776 28.2027 15.1369 28.4115 13.9101 28.6959C12.7501 28.9646 11.6088 29.299 10.4707 29.6477C10.1413 29.7484 9.84068 29.7571 9.50006 29.764C9.45318 29.7652 9.40631 29.7659 9.35943 29.7671C8.59756 29.7877 8.00631 29.3902 7.43443 28.9315L3.98193 26.164L7.67506 24.2771L9.26881 26.6109C9.29756 26.6534 9.34881 26.674 9.39881 26.6627L19.3976 24.4521Z" fill="#F9CDAF"/>
<path id="Vector_14" fill-rule="evenodd" clip-rule="evenodd" d="M23.4526 20.3661L23.9044 20.4392C24.0882 20.4686 24.2226 20.6292 24.2194 20.8155L24.2151 21.0711H24.5813V17.7005C23.7969 18.4905 23.5851 19.313 23.4526 20.3661ZM24.7013 24.3761L24.5963 21.8211H24.1782L23.9626 24.3617C23.9544 24.4599 23.9807 24.5361 24.0476 24.6092C24.1138 24.6817 24.1876 24.7142 24.2863 24.7142H24.3769C24.4726 24.7142 24.5444 24.6836 24.6107 24.6142C24.6769 24.5449 24.7044 24.4717 24.7013 24.3761ZM22.6657 20.638C22.8307 19.133 23.0757 17.888 24.5726 16.7074C24.6413 16.6526 24.7243 16.6185 24.8116 16.609C24.899 16.5995 24.9873 16.615 25.0663 16.6536C25.2301 16.733 25.3313 16.8942 25.3313 17.0749V21.438L25.4507 24.3449C25.4626 24.6442 25.3594 24.9167 25.1519 25.133C24.9444 25.3492 24.6763 25.4636 24.3769 25.4636H24.2863C23.9776 25.4636 23.7038 25.3436 23.4951 25.1161C23.2863 24.8886 23.1894 24.6061 23.2157 24.2986L23.4588 21.4274L23.4638 21.128L22.9788 21.0492C22.8838 21.034 22.7983 20.9828 22.74 20.9062C22.6817 20.8297 22.6551 20.7336 22.6657 20.638ZM22.7913 27.1286C22.7926 27.0161 22.7557 26.9274 22.6751 26.8499C22.5957 26.7724 22.5057 26.738 22.3919 26.7424L16.6838 26.9405C16.4907 26.948 16.3244 26.8074 16.2988 26.6161C16.2732 26.4249 16.3963 26.2455 16.5838 26.2011L19.6838 25.4649C19.8444 25.4267 19.9232 25.2511 19.9182 25.0967L19.9169 25.0561C19.9126 24.9355 19.8644 24.8411 19.7688 24.7667C19.6738 24.693 19.5701 24.6692 19.4519 24.6955L9.4513 26.9067C9.30193 26.9399 9.14755 26.8786 9.06068 26.7517L7.5913 24.5999L4.4388 26.2105L7.59005 28.7361C8.20568 29.2305 8.71568 29.5342 9.35193 29.5167C9.40005 29.5155 9.44693 29.5149 9.4938 29.5136C9.82818 29.5067 10.0919 29.5011 10.3963 29.408C12.6107 28.7292 14.9926 28.0511 17.6163 27.863L22.4457 27.5167C22.6407 27.503 22.7894 27.3405 22.7913 27.1392V27.1286ZM7.23255 23.9405L3.58943 25.8017C3.5838 25.8049 3.57755 25.8074 3.57193 25.8105L2.5513 26.3317L1.40255 20.0342C1.2838 19.3836 1.5613 18.7655 2.1263 18.4211L5.32505 16.473L6.96693 18.758C7.03943 18.8586 7.15443 18.9142 7.27193 18.9142C7.32818 18.9142 7.38568 18.9017 7.43943 18.8742L9.6663 17.7599L11.1088 20.2705C11.1416 20.3277 11.189 20.3752 11.246 20.4082C11.3031 20.4413 11.3679 20.4587 11.4338 20.4586C11.4507 20.4586 11.4676 20.4574 11.4844 20.4555C11.6357 20.4349 11.7594 20.3249 11.7969 20.1767L12.4132 17.7661L13.7944 18.8361C13.8613 18.888 13.9426 18.9149 14.0244 18.9149C14.0682 18.9149 14.1126 18.9067 14.1551 18.8911C14.2769 18.8461 14.3663 18.7411 14.3919 18.6142L14.8869 16.1574L16.4432 17.2367C16.4388 17.2605 16.4357 17.2849 16.4357 17.3099V24.5955L9.53693 26.1211L8.04568 23.9361L6.58818 20.4955C6.50755 20.3049 6.28755 20.2155 6.09693 20.2961C6.00537 20.3348 5.93293 20.4084 5.89554 20.5005C5.85816 20.5926 5.85888 20.6958 5.89755 20.7874L7.23255 23.9405ZM5.96755 16.0817L7.38943 18.0605L9.15755 17.1755L7.37443 15.2242L5.96755 16.0817ZM8.35943 13.3399L7.8738 14.6599L10.2051 17.2105C10.2238 17.2305 10.2401 17.253 10.2532 17.2767L11.2988 19.0967L12.3476 14.9917L11.6169 13.2736C11.3216 13.412 11.0097 13.5116 10.6888 13.5699C10.4201 13.6192 10.1763 13.6311 9.9738 13.6367C9.9363 13.638 9.8988 13.638 9.8613 13.638C9.3263 13.6374 8.82068 13.5349 8.35943 13.3399ZM7.3713 11.6117C7.98755 12.4617 8.90443 12.9149 9.95318 12.8867C10.1276 12.8824 10.3351 12.8724 10.5532 12.8317C11.6301 12.6342 12.4713 11.9224 12.8613 10.8774C12.9469 10.6486 13.0194 10.3999 13.0776 10.1392C13.3032 8.80362 13.2851 7.52362 13.0144 6.22549L11.9019 7.41862C11.3394 8.02237 10.6063 8.34112 9.7813 8.34112H5.83568C6.31068 9.76862 6.81505 10.8436 7.3713 11.6117ZM5.73255 10.1836C5.5588 9.78549 5.39068 9.35174 5.2263 8.87987C5.09996 8.95589 4.99803 9.0665 4.93255 9.19862C4.84693 9.37299 4.83505 9.56549 4.8988 9.74112C4.96318 9.91674 5.09693 10.0561 5.27443 10.1342C5.4188 10.1974 5.57755 10.213 5.73255 10.1836ZM11.4332 5.56362H12.6069L11.3544 6.90737C10.9313 7.36112 10.4019 7.59112 9.78193 7.59112H8.84568L9.70693 6.43174C10.1282 5.86362 10.7251 5.56362 11.4332 5.56362ZM5.5988 7.59112C4.9438 5.16799 5.67693 3.39737 7.61318 2.73174C9.45443 2.09862 11.7794 2.71799 12.3076 3.98237C12.4244 4.26174 12.5294 4.53862 12.6238 4.81362H11.4326C10.4919 4.81362 9.66505 5.22924 9.10443 5.98487L7.9113 7.59174H5.5988V7.59112ZM13.6326 5.56362C13.8069 6.24674 13.9163 6.92299 13.9613 7.60174L16.1988 6.94487C16.2176 6.93924 16.2238 6.93362 16.2294 6.91424C16.2351 6.89549 16.2338 6.88737 16.2213 6.87174L15.8138 6.36549C15.3919 5.84049 14.8126 5.56299 14.1388 5.56299H13.6326V5.56362ZM13.0044 15.4499L12.6151 16.9736L13.7763 17.8724L14.1813 15.8611L13.0044 15.4499ZM21.1069 20.1924L21.2757 24.3761C21.2794 24.4717 21.2519 24.5449 21.1857 24.6142C21.1194 24.683 21.0469 24.7142 20.9513 24.7142H20.7188C20.6763 24.7142 20.6382 24.7074 20.6038 24.6949C20.5582 24.5636 20.4888 24.4424 20.3976 24.3361L20.7501 20.193H21.1069V20.1924ZM20.2563 18.6786V18.9792C20.2563 19.1017 20.2976 19.198 20.3863 19.2824L20.5551 19.443H21.3176L21.4863 19.2824C21.5751 19.198 21.6163 19.1017 21.6163 18.9792V18.6786H20.2563ZM17.1857 17.3692L18.7657 12.6261H28.9232L28.6082 13.5705H19.5794C19.3726 13.5705 19.2044 13.7386 19.2044 13.9455C19.2044 14.1524 19.3726 14.3205 19.5794 14.3205H28.3582L27.4026 17.1892C27.3894 17.2274 27.3832 17.268 27.3832 17.308V26.233H23.1094C22.8982 26.0655 22.6438 25.983 22.3657 25.9917L20.1594 26.0686C20.3788 25.933 20.5413 25.7161 20.6182 25.4586C20.6513 25.4611 20.6851 25.463 20.7188 25.463H20.9513C21.2507 25.463 21.5188 25.3486 21.7263 25.133C21.9338 24.9167 22.0369 24.6442 22.0251 24.3449L21.8488 19.9711L22.0026 19.8249C22.2407 19.5986 22.3663 19.3061 22.3663 18.978V18.3024C22.3663 18.2867 22.3651 18.2717 22.3632 18.2567C22.3651 18.2417 22.3663 18.2267 22.3663 18.2111V16.8849C22.3663 16.678 22.1988 16.5099 21.9913 16.5099C21.7844 16.5099 21.6163 16.6774 21.6163 16.8849V17.9274H21.3113V16.8849C21.3113 16.678 21.1432 16.5099 20.9363 16.5099C20.7294 16.5099 20.5613 16.6774 20.5613 16.8849V17.9274H20.2563V16.8849C20.2563 16.678 20.0882 16.5099 19.8813 16.5099C19.6738 16.5099 19.5063 16.6774 19.5063 16.8849V18.2111C19.5063 18.2267 19.5076 18.2417 19.5094 18.2567C19.5076 18.2717 19.5063 18.2867 19.5063 18.3024V18.978C19.5063 19.3061 19.6319 19.5986 19.8701 19.8249L20.0163 19.9642L19.6782 23.9436C19.5513 23.928 19.4207 23.933 19.2901 23.9617L17.1857 24.4274V17.3692ZM17.8601 11.2405C17.8601 11.5911 18.1451 11.8767 18.4957 11.8767H29.4432C29.7938 11.8767 30.0794 11.5917 30.0794 11.2405C30.0794 10.8899 29.7938 10.6049 29.4432 10.6049H18.4951C18.1451 10.6049 17.8601 10.8905 17.8601 11.2405ZM28.6263 26.2336H30.1326L29.3794 25.4336L28.6263 26.2336ZM30.6257 17.3649L29.4294 13.4799L28.1332 17.3692V25.6636L29.0044 24.738V17.3086C29.0044 17.1017 29.1726 16.9336 29.3794 16.9336C29.5863 16.9336 29.7544 17.1017 29.7544 17.3086V24.738L30.6257 25.6636V17.3649ZM31.3757 17.3086V26.6086C31.3757 26.8161 31.2076 26.9836 31.0007 26.9836H23.5313C23.5376 27.0336 23.5413 27.0836 23.5407 27.1349V27.1461C23.5344 27.7424 23.0863 28.223 22.4982 28.2649L17.6694 28.6111C15.1238 28.7936 12.7888 29.4592 10.6157 30.1249C10.2113 30.2486 9.87005 30.2561 9.50818 30.2636C9.46318 30.2642 9.41693 30.2655 9.37005 30.2667C9.34755 30.2674 9.32505 30.2674 9.30255 30.2674C8.3788 30.2674 7.69255 29.7805 7.12005 29.3217L3.7063 26.5842L2.84693 27.0236C2.64443 27.1267 2.4113 27.128 2.20755 27.0274C2.0038 26.9267 1.8638 26.7411 1.82318 26.5174L0.665054 20.1692C0.489429 19.2055 0.899429 18.2905 1.7363 17.7811L7.1363 14.4917L7.69568 12.9724C7.34568 12.728 7.03255 12.4205 6.76505 12.0517C6.5188 11.7124 6.2838 11.3199 6.05693 10.873C5.9013 10.9224 5.74193 10.9486 5.58318 10.9486C5.37505 10.9486 5.1688 10.9061 4.97505 10.8217C4.60755 10.6611 4.33068 10.3692 4.19505 9.99862C4.06005 9.62862 4.08318 9.22675 4.26005 8.86674C4.41443 8.55362 4.67005 8.30612 4.98818 8.15737C4.98068 8.13424 4.9738 8.11049 4.9663 8.08674C4.96443 8.07987 4.96193 8.07237 4.96005 8.06549C4.93443 7.98424 4.90943 7.90237 4.88443 7.81924C4.88318 7.81612 4.88255 7.81299 4.8813 7.80987C4.4663 6.28987 4.52568 4.99112 5.05755 3.94862C5.51693 3.04987 6.3163 2.38362 7.37005 2.02112C8.39943 1.66737 9.60818 1.63362 10.6863 1.92987C11.8194 2.24174 12.6626 2.88362 13.0001 3.69174C13.1576 4.06924 13.2957 4.44174 13.4151 4.81174H14.1388C15.0476 4.81174 15.8288 5.18612 16.3982 5.89424L16.8057 6.40112C16.9751 6.61174 17.0257 6.87987 16.9451 7.13799C16.8644 7.39549 16.6694 7.58737 16.4101 7.66299L13.9851 8.37487C13.9813 8.99987 13.9251 9.62987 13.8157 10.2724C13.8151 10.278 13.8138 10.2842 13.8126 10.2905C13.7469 10.5886 13.6632 10.8736 13.5644 11.138C13.2976 11.8524 12.8451 12.4505 12.2669 12.8817L13.0226 14.6599L15.0426 15.3655C15.0744 15.3767 15.1044 15.3924 15.1326 15.4117L16.6876 16.4924L18.0051 12.5367C17.4826 12.3386 17.1101 11.8324 17.1101 11.2405C17.1101 10.4767 17.7313 9.85487 18.4957 9.85487H29.4432C30.2076 9.85487 30.8294 10.4767 30.8294 11.2405C30.8294 11.8355 30.4526 12.3442 29.9244 12.5399L31.3588 17.198C31.3701 17.2342 31.3757 17.2711 31.3757 17.3086ZM8.7963 11.0905C8.81858 11.0465 8.84932 11.0074 8.88675 10.9754C8.92419 10.9433 8.96759 10.919 9.01446 10.9038C9.06133 10.8886 9.11074 10.8828 9.15986 10.8867C9.20898 10.8907 9.25683 10.9043 9.30068 10.9267C9.94943 11.258 10.6613 11.1455 11.0307 10.6536C11.1551 10.488 11.3901 10.4549 11.5557 10.5792C11.7213 10.7036 11.7544 10.9386 11.6301 11.1042C11.2557 11.6036 10.6782 11.8674 10.0563 11.8674C9.69505 11.8674 9.31943 11.7786 8.96005 11.5949C8.91601 11.5727 8.8768 11.542 8.84469 11.5046C8.81258 11.4672 8.78821 11.4237 8.77299 11.3768C8.75776 11.3299 8.75198 11.2805 8.75598 11.2313C8.75998 11.1822 8.77369 11.1343 8.7963 11.0905Z" fill="#222124"/>
</g>
</g>
</g>
</svg>
