<svg width="24" height="24" viewBox="0 0 24 24" fill="none" xmlns="http://www.w3.org/2000/svg">
<g id="Frame" clip-path="url(#clip0_31243_5090)">
<g id="Group">
<g id="Group_2">
<path id="Vector" fill-rule="evenodd" clip-rule="evenodd" d="M18.1891 0.894637L22.2282 4.93371C22.468 5.16518 22.6077 5.45201 22.6077 5.79012V20.2055H7.18579V0.515137H17.3327C17.6709 0.515137 17.9576 0.654871 18.1891 0.894637Z" fill="#E3F1FF"/>
<path id="Vector_2" fill-rule="evenodd" clip-rule="evenodd" d="M21.716 4.42139L22.2283 4.93368C22.468 5.16515 22.6078 5.45198 22.6078 5.79009V20.2055H22.0158V5.2874C22.0158 5.04482 21.9457 4.43742 20.8801 4.42139H21.7159H21.716Z" fill="#B6DBFF"/>
<path id="Vector_3" fill-rule="evenodd" clip-rule="evenodd" d="M18.2229 0.928711L22.1945 4.90029C21.9512 4.66535 21.6206 4.52041 21.2571 4.52041H18.6028V1.86612C18.6028 1.5026 18.4579 1.17195 18.2229 0.928711Z" fill="#61A0E0"/>
<path id="Vector_4" fill-rule="evenodd" clip-rule="evenodd" d="M18.2229 0.928711L21.3841 4.08987C21.2018 4.00173 21.0019 3.95605 20.7994 3.95627H18.6028V1.86612C18.6028 1.5026 18.4579 1.1719 18.2229 0.928711Z" fill="#7CB5EF"/>
<path id="Vector_5" fill-rule="evenodd" clip-rule="evenodd" d="M9.93335 10.6888C9.84633 10.6888 9.76287 10.6542 9.70133 10.5927C9.63979 10.5312 9.60522 10.4477 9.60522 10.3607C9.60522 10.2737 9.63979 10.1902 9.70133 10.1287C9.76287 10.0671 9.84633 10.0326 9.93335 10.0326H19.8601C19.9471 10.0326 20.0306 10.0671 20.0921 10.1287C20.1537 10.1902 20.1882 10.2737 20.1882 10.3607C20.1882 10.4477 20.1537 10.5312 20.0921 10.5927C20.0306 10.6542 19.9471 10.6888 19.8601 10.6888H9.93335ZM14.2267 17.658C14.1397 17.658 14.0562 17.6235 13.9947 17.5619C13.9331 17.5004 13.8986 17.4169 13.8986 17.3299C13.8986 17.2429 13.9331 17.1594 13.9947 17.0979C14.0562 17.0364 14.1397 17.0018 14.2267 17.0018H17.3289C17.4159 17.0018 17.4994 17.0364 17.5609 17.0979C17.6225 17.1594 17.657 17.2429 17.657 17.3299C17.657 17.4169 17.6225 17.5004 17.5609 17.5619C17.4994 17.6235 17.4159 17.658 17.3289 17.658H14.2267ZM13.4111 15.335C13.324 15.335 13.2406 15.3004 13.179 15.2389C13.1175 15.1773 13.0829 15.0939 13.0829 15.0068C13.0829 14.9198 13.1175 14.8363 13.179 14.7748C13.2406 14.7133 13.324 14.6787 13.4111 14.6787H18.4188C18.5058 14.6787 18.5892 14.7133 18.6508 14.7748C18.7123 14.8363 18.7469 14.9198 18.7469 15.0068C18.7469 15.0939 18.7123 15.1773 18.6508 15.2389C18.5892 15.3004 18.5058 15.335 18.4188 15.335H13.4111ZM9.9334 8.36572C9.84637 8.36572 9.76291 8.33115 9.70138 8.26962C9.63984 8.20808 9.60527 8.12462 9.60527 8.0376C9.60527 7.95057 9.63984 7.86711 9.70138 7.80558C9.76291 7.74404 9.84637 7.70947 9.9334 7.70947H19.8602C19.9472 7.70947 20.0306 7.74404 20.0922 7.80558C20.1537 7.86711 20.1883 7.95057 20.1883 8.0376C20.1883 8.12462 20.1537 8.20808 20.0922 8.26962C20.0306 8.33115 19.9472 8.36572 19.8602 8.36572H9.93335H9.9334ZM12.8303 13.0119C12.7432 13.0119 12.6598 12.9773 12.5983 12.9158C12.5367 12.8542 12.5021 12.7708 12.5021 12.6838C12.5021 12.5967 12.5367 12.5133 12.5983 12.4517C12.6598 12.3902 12.7432 12.3556 12.8303 12.3556H19.8602C19.9472 12.3556 20.0306 12.3902 20.0922 12.4517C20.1537 12.5133 20.1883 12.5967 20.1883 12.6838C20.1883 12.7708 20.1537 12.8542 20.0922 12.9158C20.0306 12.9773 19.9472 13.0119 19.8602 13.0119H12.8303Z" fill="#909CD1"/>
</g>
<path id="Vector_6" d="M14.4415 3.39111H10.164C10.0366 3.39111 9.93335 3.49437 9.93335 3.62174V5.48357C9.93335 5.61094 10.0366 5.71419 10.164 5.71419H14.4415C14.5689 5.71419 14.6721 5.61094 14.6721 5.48357V3.62174C14.6721 3.49437 14.5689 3.39111 14.4415 3.39111Z" fill="#2A92FA"/>
<path id="Vector_7" d="M14.0548 3.39111H10.164C10.0366 3.39111 9.93335 3.49437 9.93335 3.62174V5.48357C9.93335 5.61094 10.0366 5.71419 10.164 5.71419H14.0548C14.1822 5.71419 14.2854 5.61094 14.2854 5.48357V3.62174C14.2854 3.49437 14.1822 3.39111 14.0548 3.39111Z" fill="#4EB1FC"/>
<path id="Vector_8" d="M17.3733 20.3289L21.068 13.9297L22.9123 14.9945L19.2175 21.3938L17.3733 20.3289Z" fill="#DEA368"/>
<path id="Vector_9" fill-rule="evenodd" clip-rule="evenodd" d="M22.9532 12.7937C23.4604 13.0865 23.6358 13.741 23.343 14.2482L22.9127 14.9935L21.0684 13.9288L21.4987 13.1834C21.7915 12.6762 22.4461 12.5009 22.9532 12.7937V12.7937Z" fill="#495586"/>
<path id="Vector_10" d="M17.3733 20.3289L21.068 13.9297L22.2774 14.6279L18.5828 21.0272L17.3733 20.3289Z" fill="#E6B17C"/>
<path id="Vector_11" fill-rule="evenodd" clip-rule="evenodd" d="M21.0684 13.9288L21.4987 13.1834C21.7272 12.7877 22.176 12.5939 22.6031 12.6671C22.88 13.0004 22.9366 13.4859 22.7081 13.8817L22.2778 14.627L21.0684 13.9288Z" fill="#5D689E"/>
<path id="Vector_12" d="M20.3279 15.2117L21.0681 13.9297L22.9123 14.9945L22.1721 16.2765L20.3279 15.2117Z" fill="#F9AC00"/>
<path id="Vector_13" d="M20.3279 15.2117L21.0681 13.9297L22.2775 14.6279L21.5373 15.91L20.3279 15.2117Z" fill="#FCDB35"/>
<path id="Vector_14" fill-rule="evenodd" clip-rule="evenodd" d="M19.2178 21.3934L16.9169 23.4567C16.8999 23.4722 16.8783 23.4819 16.8554 23.4843C16.8324 23.4867 16.8093 23.4817 16.7894 23.4699C16.7693 23.4586 16.7534 23.4411 16.744 23.42C16.7346 23.399 16.7322 23.3754 16.7372 23.3529L17.3735 20.3286L19.2178 21.3934Z" fill="#495586"/>
<path id="Vector_15" fill-rule="evenodd" clip-rule="evenodd" d="M16.9114 22.526L17.3738 20.3286L18.5832 21.0269L16.9114 22.526Z" fill="#5D689E"/>
<path id="Vector_16" fill-rule="evenodd" clip-rule="evenodd" d="M5.18551 12.3192L3.81291 12.8886L3.09357 12.4062L1.4506 14.0491L1.93299 14.7685L1.3636 16.1411L0.514648 16.3085V18.632L1.3636 18.7994L1.93299 20.172L1.4506 20.8913L3.09357 22.5343L3.81291 22.0519L5.18551 22.6213L5.3529 23.4703H7.6764L7.84379 22.6213L9.21638 22.0519L9.93573 22.5343L11.5787 20.8913L11.0963 20.172L11.6656 18.7994L12.5146 18.632V16.3085L11.6656 16.1411L11.0963 14.7685L11.5787 14.0491L9.93573 12.4062L9.21638 12.8886L7.84379 12.3192L7.6764 11.4702H5.3529L5.18551 12.3192Z" fill="#F9AC00"/>
<path id="Vector_17" fill-rule="evenodd" clip-rule="evenodd" d="M5.18551 12.3192L4.7213 12.5118L4.12009 12.7612L3.81291 12.8886L3.54957 12.9978L2.92248 12.5773L1.4506 14.0491L1.93299 14.7685L1.36365 16.1411L0.514648 16.3085V18.632L1.36365 18.7994L1.93299 20.172L1.4506 20.8913L2.92248 22.3632L3.54957 21.9427L3.81291 22.0519V22.0519L5.18551 22.6213L5.3529 23.4703H7.39379L7.57398 22.5564L9.05349 21.9427L9.21638 22.0519V22.0519L9.68059 22.3632L11.1525 20.8913L10.6701 20.172L11.2394 18.7994L12.0884 18.632V16.3085L11.2394 16.1411L10.6701 14.7685L11.1525 14.0491L9.68059 12.5773L9.21638 12.8886L9.05349 12.9978L7.57398 12.3841L7.39379 11.4702H5.3529L5.18551 12.3192Z" fill="#FDC72E"/>
<path id="Vector_18" d="M6.62976 21.2726C8.73186 21.0413 10.2484 19.1497 10.0171 17.0476C9.78576 14.9455 7.89414 13.4289 5.79203 13.6602C3.68993 13.8916 2.17337 15.7832 2.4047 17.8853C2.63603 19.9874 4.52766 21.504 6.62976 21.2726Z" fill="#F9AC00"/>
<path id="Vector_19" d="M6.51469 21.2828C8.62016 21.2828 10.327 19.576 10.327 17.4705C10.327 15.365 8.62016 13.6582 6.51469 13.6582C4.40922 13.6582 2.70239 15.365 2.70239 17.4705C2.70239 19.576 4.40922 21.2828 6.51469 21.2828Z" fill="#F3F3FF"/>
<path id="Vector_20" fill-rule="evenodd" clip-rule="evenodd" d="M4.55952 19.8895C4.49764 19.9493 4.41475 19.9824 4.32872 19.9816C4.24268 19.9809 4.16039 19.9464 4.09955 19.8855C4.03871 19.8247 4.0042 19.7424 4.00346 19.6564C4.00271 19.5703 4.03578 19.4874 4.09555 19.4256L4.18874 19.3324C4.25063 19.2726 4.33351 19.2395 4.41954 19.2403C4.50558 19.241 4.58788 19.2755 4.64871 19.3364C4.70955 19.3972 4.74406 19.4795 4.74481 19.5655C4.74555 19.6516 4.71248 19.7344 4.65271 19.7963L4.55952 19.8895ZM6.84276 20.5634C6.84276 20.6505 6.80819 20.7339 6.74665 20.7955C6.68512 20.857 6.60166 20.8916 6.51463 20.8916C6.42761 20.8916 6.34415 20.857 6.28261 20.7955C6.22108 20.7339 6.18651 20.6505 6.18651 20.5634V20.4317C6.18651 20.3447 6.22108 20.2612 6.28261 20.1997C6.34415 20.1381 6.42761 20.1036 6.51463 20.1036C6.60166 20.1036 6.68512 20.1381 6.74665 20.1997C6.80819 20.2612 6.84276 20.3447 6.84276 20.4317V20.5634ZM8.93371 19.4256C8.99348 19.4874 9.02655 19.5703 9.0258 19.6564C9.02506 19.7424 8.99055 19.8247 8.92971 19.8855C8.86888 19.9464 8.78658 19.9809 8.70054 19.9816C8.61451 19.9824 8.53163 19.9493 8.46974 19.8895L8.37655 19.7963C8.31678 19.7344 8.28371 19.6516 8.28446 19.5655C8.2852 19.4795 8.31971 19.3972 8.38055 19.3364C8.44139 19.2755 8.52368 19.241 8.60972 19.2403C8.69575 19.2395 8.77864 19.2726 8.84052 19.3324L8.93371 19.4256ZM9.60768 17.1423C9.6947 17.1423 9.77816 17.1769 9.8397 17.2384C9.90123 17.3 9.9358 17.3834 9.9358 17.4704C9.9358 17.5575 9.90123 17.6409 9.8397 17.7025C9.77816 17.764 9.6947 17.7986 9.60768 17.7986H9.47591C9.38889 17.7986 9.30543 17.764 9.24389 17.7025C9.18236 17.6409 9.14779 17.5575 9.14779 17.4704C9.14779 17.3834 9.18236 17.3 9.24389 17.2384C9.30543 17.1769 9.38889 17.1423 9.47591 17.1423H9.60768ZM8.46974 15.0514C8.53163 14.9916 8.61451 14.9585 8.70054 14.9593C8.78658 14.96 8.86888 14.9945 8.92971 15.0554C8.99055 15.1162 9.02506 15.1985 9.0258 15.2845C9.02655 15.3706 8.99348 15.4534 8.93371 15.5153L8.84052 15.6085C8.77864 15.6683 8.69575 15.7014 8.60972 15.7006C8.52368 15.6999 8.44139 15.6654 8.38055 15.6045C8.31971 15.5437 8.2852 15.4614 8.28446 15.3754C8.28371 15.2893 8.31678 15.2064 8.37655 15.1446L8.46974 15.0514ZM6.18651 14.3774C6.18651 14.2904 6.22108 14.207 6.28261 14.1454C6.34415 14.0839 6.42761 14.0493 6.51463 14.0493C6.60166 14.0493 6.68512 14.0839 6.74665 14.1454C6.80819 14.207 6.84276 14.2904 6.84276 14.3774V14.5092C6.84276 14.5962 6.80819 14.6797 6.74665 14.7412C6.68512 14.8028 6.60166 14.8373 6.51463 14.8373C6.42761 14.8373 6.34415 14.8028 6.28261 14.7412C6.22108 14.6797 6.18651 14.5962 6.18651 14.5092V14.3774ZM4.09555 15.5153C4.03578 15.4534 4.00271 15.3706 4.00346 15.2845C4.0042 15.1985 4.03871 15.1162 4.09955 15.0554C4.16039 14.9945 4.24268 14.96 4.32872 14.9593C4.41475 14.9585 4.49764 14.9916 4.55952 15.0514L4.65271 15.1446C4.71248 15.2064 4.74555 15.2893 4.74481 15.3754C4.74406 15.4614 4.70955 15.5437 4.64871 15.6045C4.58788 15.6654 4.50558 15.6999 4.41954 15.7006C4.33351 15.7014 4.25063 15.6683 4.18874 15.6085L4.09555 15.5153ZM3.42163 17.7986C3.33461 17.7986 3.25115 17.764 3.18961 17.7025C3.12808 17.6409 3.09351 17.5575 3.09351 17.4704C3.09351 17.3834 3.12808 17.3 3.18961 17.2384C3.25115 17.1769 3.33461 17.1423 3.42163 17.1423H3.5534C3.64042 17.1423 3.72388 17.1769 3.78542 17.2384C3.84695 17.3 3.88152 17.3834 3.88152 17.4704C3.88152 17.5575 3.84695 17.6409 3.78542 17.7025C3.72388 17.764 3.64042 17.7986 3.5534 17.7986H3.42163Z" fill="#7986BF"/>
<path id="Vector_21" fill-rule="evenodd" clip-rule="evenodd" d="M5.50408 18.9445C5.44219 19.0042 5.3593 19.0373 5.27327 19.0365C5.18724 19.0358 5.10494 19.0013 5.0441 18.9405C4.98327 18.8796 4.94876 18.7973 4.94801 18.7113C4.94726 18.6253 4.98034 18.5424 5.04011 18.4805L6.18643 17.3342V15.7129C6.18643 15.6259 6.221 15.5424 6.28254 15.4809C6.34408 15.4193 6.42754 15.3848 6.51456 15.3848C6.60158 15.3848 6.68504 15.4193 6.74658 15.4809C6.80811 15.5424 6.84268 15.6259 6.84268 15.7129V17.47C6.84274 17.5131 6.83428 17.5558 6.81779 17.5956C6.8013 17.6354 6.7771 17.6716 6.74659 17.702L5.50408 18.9445Z" fill="#F2671F"/>
</g>
</g>
<defs>
<clipPath id="clip0_31243_5090">
<rect width="24" height="24" fill="white"/>
</clipPath>
</defs>
</svg>
